<mxfile host="app.diagrams.net" modified="2023-12-11T20:46:02.328Z" agent="Mozilla/5.0 (Windows NT 10.0; Win64; x64) AppleWebKit/537.36 (KHTML, like Gecko) Chrome/119.0.0.0 Safari/537.36" etag="d-re-DBis_et6S8O2qvK" version="22.1.7" type="github">
  <diagram name="Page-1" id="r4HgYfRCgoHrCfJZUgXy">
    <mxGraphModel dx="1217" dy="1093" grid="1" gridSize="10" guides="1" tooltips="1" connect="1" arrows="1" fold="1" page="1" pageScale="1" pageWidth="827" pageHeight="1169" math="0" shadow="0">
      <root>
        <mxCell id="0" />
        <mxCell id="1" parent="0" />
        <mxCell id="L4QYTUJZ_KFNhh87ykTk-15" style="edgeStyle=orthogonalEdgeStyle;rounded=0;orthogonalLoop=1;jettySize=auto;html=1;entryX=0.5;entryY=0;entryDx=0;entryDy=0;" parent="1" source="L4QYTUJZ_KFNhh87ykTk-1" target="L4QYTUJZ_KFNhh87ykTk-2" edge="1">
          <mxGeometry relative="1" as="geometry" />
        </mxCell>
        <mxCell id="L4QYTUJZ_KFNhh87ykTk-1" value="L&#39;utilisateur modifie le champs de recherche" style="rounded=1;whiteSpace=wrap;html=1;" parent="1" vertex="1">
          <mxGeometry x="345" y="30" width="140" height="40" as="geometry" />
        </mxCell>
        <mxCell id="L4QYTUJZ_KFNhh87ykTk-3" style="edgeStyle=orthogonalEdgeStyle;rounded=0;orthogonalLoop=1;jettySize=auto;html=1;entryX=0;entryY=0.5;entryDx=0;entryDy=0;" parent="1" source="L4QYTUJZ_KFNhh87ykTk-2" target="L4QYTUJZ_KFNhh87ykTk-1" edge="1">
          <mxGeometry relative="1" as="geometry">
            <mxPoint x="270" y="60" as="targetPoint" />
            <Array as="points">
              <mxPoint x="300" y="145" />
              <mxPoint x="300" y="50" />
            </Array>
          </mxGeometry>
        </mxCell>
        <mxCell id="L4QYTUJZ_KFNhh87ykTk-4" value="NO" style="edgeLabel;html=1;align=center;verticalAlign=middle;resizable=0;points=[];" parent="L4QYTUJZ_KFNhh87ykTk-3" vertex="1" connectable="0">
          <mxGeometry x="0.05" relative="1" as="geometry">
            <mxPoint as="offset" />
          </mxGeometry>
        </mxCell>
        <mxCell id="L4QYTUJZ_KFNhh87ykTk-7" style="edgeStyle=orthogonalEdgeStyle;rounded=0;orthogonalLoop=1;jettySize=auto;html=1;entryX=0.5;entryY=0;entryDx=0;entryDy=0;" parent="1" source="L4QYTUJZ_KFNhh87ykTk-2" target="L4QYTUJZ_KFNhh87ykTk-6" edge="1">
          <mxGeometry relative="1" as="geometry" />
        </mxCell>
        <mxCell id="L4QYTUJZ_KFNhh87ykTk-8" value="YES" style="edgeLabel;html=1;align=center;verticalAlign=middle;resizable=0;points=[];" parent="L4QYTUJZ_KFNhh87ykTk-7" vertex="1" connectable="0">
          <mxGeometry x="-0.0857" y="2" relative="1" as="geometry">
            <mxPoint as="offset" />
          </mxGeometry>
        </mxCell>
        <mxCell id="L4QYTUJZ_KFNhh87ykTk-2" value="nb caractères&lt;br&gt;&amp;nbsp;&amp;gt; 2" style="rhombus;whiteSpace=wrap;html=1;" parent="1" vertex="1">
          <mxGeometry x="360" y="110" width="110" height="70" as="geometry" />
        </mxCell>
        <mxCell id="L4QYTUJZ_KFNhh87ykTk-5" style="edgeStyle=orthogonalEdgeStyle;rounded=0;orthogonalLoop=1;jettySize=auto;html=1;exitX=0.5;exitY=1;exitDx=0;exitDy=0;" parent="1" source="L4QYTUJZ_KFNhh87ykTk-2" target="L4QYTUJZ_KFNhh87ykTk-2" edge="1">
          <mxGeometry relative="1" as="geometry" />
        </mxCell>
        <mxCell id="1atgcBUKrtSfy6TpUmoW-4" style="edgeStyle=orthogonalEdgeStyle;rounded=0;orthogonalLoop=1;jettySize=auto;html=1;entryX=0.5;entryY=0;entryDx=0;entryDy=0;" edge="1" parent="1" source="L4QYTUJZ_KFNhh87ykTk-6" target="1atgcBUKrtSfy6TpUmoW-3">
          <mxGeometry relative="1" as="geometry" />
        </mxCell>
        <mxCell id="L4QYTUJZ_KFNhh87ykTk-6" value="BOUCLE SUR CHAQUES RECETTES" style="rounded=1;whiteSpace=wrap;html=1;" parent="1" vertex="1">
          <mxGeometry x="345" y="220" width="136" height="40" as="geometry" />
        </mxCell>
        <mxCell id="1atgcBUKrtSfy6TpUmoW-6" style="edgeStyle=orthogonalEdgeStyle;rounded=0;orthogonalLoop=1;jettySize=auto;html=1;entryX=0.5;entryY=0;entryDx=0;entryDy=0;" edge="1" parent="1" source="1atgcBUKrtSfy6TpUmoW-3" target="1atgcBUKrtSfy6TpUmoW-5">
          <mxGeometry relative="1" as="geometry" />
        </mxCell>
        <mxCell id="1atgcBUKrtSfy6TpUmoW-16" value="NO" style="edgeLabel;html=1;align=center;verticalAlign=middle;resizable=0;points=[];" vertex="1" connectable="0" parent="1atgcBUKrtSfy6TpUmoW-6">
          <mxGeometry x="0.28" y="-3" relative="1" as="geometry">
            <mxPoint as="offset" />
          </mxGeometry>
        </mxCell>
        <mxCell id="1atgcBUKrtSfy6TpUmoW-10" style="edgeStyle=orthogonalEdgeStyle;rounded=0;orthogonalLoop=1;jettySize=auto;html=1;entryX=0;entryY=0.5;entryDx=0;entryDy=0;" edge="1" parent="1" source="1atgcBUKrtSfy6TpUmoW-3" target="1atgcBUKrtSfy6TpUmoW-9">
          <mxGeometry relative="1" as="geometry" />
        </mxCell>
        <mxCell id="1atgcBUKrtSfy6TpUmoW-13" value="YES" style="edgeLabel;html=1;align=center;verticalAlign=middle;resizable=0;points=[];" vertex="1" connectable="0" parent="1atgcBUKrtSfy6TpUmoW-10">
          <mxGeometry x="-0.7462" y="1" relative="1" as="geometry">
            <mxPoint as="offset" />
          </mxGeometry>
        </mxCell>
        <mxCell id="1atgcBUKrtSfy6TpUmoW-3" value="Recherche dans TITRE" style="rhombus;whiteSpace=wrap;html=1;" vertex="1" parent="1">
          <mxGeometry x="353" y="300" width="120" height="80" as="geometry" />
        </mxCell>
        <mxCell id="1atgcBUKrtSfy6TpUmoW-8" style="edgeStyle=orthogonalEdgeStyle;rounded=0;orthogonalLoop=1;jettySize=auto;html=1;entryX=0.5;entryY=0;entryDx=0;entryDy=0;" edge="1" parent="1" source="1atgcBUKrtSfy6TpUmoW-5" target="1atgcBUKrtSfy6TpUmoW-7">
          <mxGeometry relative="1" as="geometry" />
        </mxCell>
        <mxCell id="1atgcBUKrtSfy6TpUmoW-17" value="NO" style="edgeLabel;html=1;align=center;verticalAlign=middle;resizable=0;points=[];" vertex="1" connectable="0" parent="1atgcBUKrtSfy6TpUmoW-8">
          <mxGeometry x="-0.2" y="-1" relative="1" as="geometry">
            <mxPoint as="offset" />
          </mxGeometry>
        </mxCell>
        <mxCell id="1atgcBUKrtSfy6TpUmoW-11" style="edgeStyle=orthogonalEdgeStyle;rounded=0;orthogonalLoop=1;jettySize=auto;html=1;entryX=0;entryY=0.5;entryDx=0;entryDy=0;" edge="1" parent="1" source="1atgcBUKrtSfy6TpUmoW-5" target="1atgcBUKrtSfy6TpUmoW-9">
          <mxGeometry relative="1" as="geometry" />
        </mxCell>
        <mxCell id="1atgcBUKrtSfy6TpUmoW-14" value="YES" style="edgeLabel;html=1;align=center;verticalAlign=middle;resizable=0;points=[];" vertex="1" connectable="0" parent="1atgcBUKrtSfy6TpUmoW-11">
          <mxGeometry x="-0.4253" relative="1" as="geometry">
            <mxPoint as="offset" />
          </mxGeometry>
        </mxCell>
        <mxCell id="1atgcBUKrtSfy6TpUmoW-5" value="Recherche dans INGREDIENTS" style="rhombus;whiteSpace=wrap;html=1;" vertex="1" parent="1">
          <mxGeometry x="353" y="410" width="120" height="80" as="geometry" />
        </mxCell>
        <mxCell id="1atgcBUKrtSfy6TpUmoW-12" style="edgeStyle=orthogonalEdgeStyle;rounded=0;orthogonalLoop=1;jettySize=auto;html=1;entryX=0;entryY=0.5;entryDx=0;entryDy=0;" edge="1" parent="1" source="1atgcBUKrtSfy6TpUmoW-7" target="1atgcBUKrtSfy6TpUmoW-9">
          <mxGeometry relative="1" as="geometry" />
        </mxCell>
        <mxCell id="1atgcBUKrtSfy6TpUmoW-15" value="YES" style="edgeLabel;html=1;align=center;verticalAlign=middle;resizable=0;points=[];" vertex="1" connectable="0" parent="1atgcBUKrtSfy6TpUmoW-12">
          <mxGeometry x="-0.7971" y="1" relative="1" as="geometry">
            <mxPoint as="offset" />
          </mxGeometry>
        </mxCell>
        <mxCell id="1atgcBUKrtSfy6TpUmoW-33" style="edgeStyle=orthogonalEdgeStyle;rounded=0;orthogonalLoop=1;jettySize=auto;html=1;entryX=0.5;entryY=0;entryDx=0;entryDy=0;" edge="1" parent="1" source="1atgcBUKrtSfy6TpUmoW-7" target="1atgcBUKrtSfy6TpUmoW-32">
          <mxGeometry relative="1" as="geometry" />
        </mxCell>
        <mxCell id="1atgcBUKrtSfy6TpUmoW-34" value="NO" style="edgeLabel;html=1;align=center;verticalAlign=middle;resizable=0;points=[];" vertex="1" connectable="0" parent="1atgcBUKrtSfy6TpUmoW-33">
          <mxGeometry x="-0.3" y="-3" relative="1" as="geometry">
            <mxPoint as="offset" />
          </mxGeometry>
        </mxCell>
        <mxCell id="1atgcBUKrtSfy6TpUmoW-7" value="Recherche dans DESCRIPTION" style="rhombus;whiteSpace=wrap;html=1;" vertex="1" parent="1">
          <mxGeometry x="353" y="530" width="120" height="80" as="geometry" />
        </mxCell>
        <mxCell id="1atgcBUKrtSfy6TpUmoW-35" style="edgeStyle=orthogonalEdgeStyle;rounded=0;orthogonalLoop=1;jettySize=auto;html=1;entryX=1;entryY=0.5;entryDx=0;entryDy=0;" edge="1" parent="1" source="1atgcBUKrtSfy6TpUmoW-9" target="1atgcBUKrtSfy6TpUmoW-32">
          <mxGeometry relative="1" as="geometry">
            <Array as="points">
              <mxPoint x="620" y="705" />
            </Array>
          </mxGeometry>
        </mxCell>
        <mxCell id="1atgcBUKrtSfy6TpUmoW-9" value="Ajouter à la liste des recettes" style="rounded=1;whiteSpace=wrap;html=1;" vertex="1" parent="1">
          <mxGeometry x="560" y="420" width="120" height="60" as="geometry" />
        </mxCell>
        <mxCell id="1atgcBUKrtSfy6TpUmoW-36" style="edgeStyle=orthogonalEdgeStyle;rounded=0;orthogonalLoop=1;jettySize=auto;html=1;entryX=0;entryY=0.5;entryDx=0;entryDy=0;" edge="1" parent="1" source="1atgcBUKrtSfy6TpUmoW-32" target="L4QYTUJZ_KFNhh87ykTk-6">
          <mxGeometry relative="1" as="geometry">
            <Array as="points">
              <mxPoint x="240" y="705" />
              <mxPoint x="240" y="240" />
            </Array>
          </mxGeometry>
        </mxCell>
        <mxCell id="1atgcBUKrtSfy6TpUmoW-37" value="NO" style="edgeLabel;html=1;align=center;verticalAlign=middle;resizable=0;points=[];" vertex="1" connectable="0" parent="1atgcBUKrtSfy6TpUmoW-36">
          <mxGeometry x="0.043" relative="1" as="geometry">
            <mxPoint as="offset" />
          </mxGeometry>
        </mxCell>
        <mxCell id="1atgcBUKrtSfy6TpUmoW-39" style="edgeStyle=orthogonalEdgeStyle;rounded=0;orthogonalLoop=1;jettySize=auto;html=1;entryX=0.5;entryY=0;entryDx=0;entryDy=0;" edge="1" parent="1" source="1atgcBUKrtSfy6TpUmoW-32" target="1atgcBUKrtSfy6TpUmoW-38">
          <mxGeometry relative="1" as="geometry" />
        </mxCell>
        <mxCell id="1atgcBUKrtSfy6TpUmoW-40" value="YES" style="edgeLabel;html=1;align=center;verticalAlign=middle;resizable=0;points=[];" vertex="1" connectable="0" parent="1atgcBUKrtSfy6TpUmoW-39">
          <mxGeometry x="-0.1667" relative="1" as="geometry">
            <mxPoint as="offset" />
          </mxGeometry>
        </mxCell>
        <mxCell id="1atgcBUKrtSfy6TpUmoW-32" value="Toutes les recettes sont&lt;br&gt;passées dans la boucle ?" style="rhombus;whiteSpace=wrap;html=1;" vertex="1" parent="1">
          <mxGeometry x="309.5" y="660" width="207" height="90" as="geometry" />
        </mxCell>
        <mxCell id="1atgcBUKrtSfy6TpUmoW-42" style="edgeStyle=orthogonalEdgeStyle;rounded=0;orthogonalLoop=1;jettySize=auto;html=1;entryX=0.5;entryY=0;entryDx=0;entryDy=0;" edge="1" parent="1" source="1atgcBUKrtSfy6TpUmoW-38" target="1atgcBUKrtSfy6TpUmoW-41">
          <mxGeometry relative="1" as="geometry" />
        </mxCell>
        <mxCell id="1atgcBUKrtSfy6TpUmoW-38" value="FIN DE LA BOUCLE" style="rounded=1;whiteSpace=wrap;html=1;" vertex="1" parent="1">
          <mxGeometry x="353" y="810" width="120" height="30" as="geometry" />
        </mxCell>
        <mxCell id="1atgcBUKrtSfy6TpUmoW-43" style="edgeStyle=orthogonalEdgeStyle;rounded=0;orthogonalLoop=1;jettySize=auto;html=1;entryX=1;entryY=0.5;entryDx=0;entryDy=0;" edge="1" parent="1" source="1atgcBUKrtSfy6TpUmoW-41" target="L4QYTUJZ_KFNhh87ykTk-1">
          <mxGeometry relative="1" as="geometry">
            <Array as="points">
              <mxPoint x="730" y="910" />
              <mxPoint x="730" y="50" />
            </Array>
          </mxGeometry>
        </mxCell>
        <mxCell id="1atgcBUKrtSfy6TpUmoW-41" value="Mise à jour de la page&lt;br&gt;avec la nouvelle liste de recettes" style="rounded=1;whiteSpace=wrap;html=1;" vertex="1" parent="1">
          <mxGeometry x="323" y="880" width="180" height="60" as="geometry" />
        </mxCell>
      </root>
    </mxGraphModel>
  </diagram>
</mxfile>
